PathFileType	4	(x/y/z)	S10_PSF_T03
DataRate	CameraRate	NumFrames	NumMarkers	Units	OrigDataRate	OrigDataStartFrame	OrigNumFrames
240	240	7	51	mm	240	56	440
Frame#	Time	Sternum			R.Acromium			L.Acromium			Top.Head			R.ASIS			L.ASIS			R.PSIS			L.PSIS			R.Great.Tro			L.Great.Tro			R.Iliac.Crest			L.Iliac.Crest			V.Sacral			R.Thigh.Upper.Post			R.Thigh.Lower.Ant			R.Thigh.Lower.Post			R.Thigh.Upper.Ant			R.Knee.Lat			R.Knee.Med			R.Shank.Upper.Post			R.Shank.Lower.Ant			R.Shank.Lower.Post			R.Shank.Upper.Ant			R.Ankle.Lat			R.Ankle.Med			R.Heel.Upper			R.Heel.Med			R.Heel.Lat			R.Toe.Lat			R.Toe.Med			R.Toe.Tip			L.Thigh.Upper.Post			L.Thigh.Lower.Ant			L.Thigh.Lower.Post			L.Thigh.Upper.Ant			L.Knee.Lat			L.Knee.Med			L.Shank.Upper.Post			L.Shank.Lower.Ant			L.Shank.Lower.Post			L.Shank.Upper.Ant			L.Ankle.Lat			L.Ankle.Med			L.Heel.Upper			L.Heel.Med			L.Heel.Lat			L.Toe.Lat			L.Toe.Med			L.Toe.Tip			Cervical.Spine			Back			
		X1	Y1	Z1	X2	Y2	Z2	X3	Y3	Z3	X4	Y4	Z4	X5	Y5	Z5	X6	Y6	Z6	X7	Y7	Z7	X8	Y8	Z8	X9	Y9	Z9	X10	Y10	Z10	X11	Y11	Z11	X12	Y12	Z12	X13	Y13	Z13	X14	Y14	Z14	X15	Y15	Z15	X16	Y16	Z16	X17	Y17	Z17	X18	Y18	Z18	X19	Y19	Z19	X20	Y20	Z20	X21	Y21	Z21	X22	Y22	Z22	X23	Y23	Z23	X24	Y24	Z24	X25	Y25	Z25	X26	Y26	Z26	X27	Y27	Z27	X28	Y28	Z28	X29	Y29	Z29	X30	Y30	Z30	X31	Y31	Z31	X32	Y32	Z32	X33	Y33	Z33	X34	Y34	Z34	X35	Y35	Z35	X36	Y36	Z36	X37	Y37	Z37	X38	Y38	Z38	X39	Y39	Z39	X40	Y40	Z40	X41	Y41	Z41	X42	Y42	Z42	X43	Y43	Z43	X44	Y44	Z44	X45	Y45	Z45	X46	Y46	Z46	X47	Y47	Z47	X48	Y48	Z48	X49	Y49	Z49	X50	Y50	Z50	X51	Y51	Z51	

56	0.22917	-1113.4	1254.5	273.21	-1228.4	1413.3	425.02	-1243.1	1430.9	121.03	-1301.5	1725.4	290.77	-1175.9	979.69	390.41	NaN	NaN	NaN	NaN	NaN	NaN	NaN	NaN	NaN	-1256	890.19	448.95	-1214.7	963.79	99.024	-1278.6	1057.1	432.84	-1240.2	1091.1	133.96	-1392.5	976.53	251.12	NaN	NaN	NaN	-1153.2	611.56	427.2	-1215.2	596.48	449.49	NaN	NaN	NaN	-1212.7	472.97	419.23	-1187.7	466.27	287.61	-1418.2	396.76	403.25	-1442.3	309.92	399.5	-1481.6	356.38	396.37	-1378	346.99	409.49	-1560	280.34	379.34	-1530	272.03	295.95	-1599.3	319.99	323.17	-1618.1	307.31	294.73	-1627.1	314.31	355.52	-1624.7	141.28	399.45	NaN	NaN	NaN	NaN	NaN	NaN	-1182	676.72	107.5	NaN	NaN	NaN	-1161.2	586.65	135.01	NaN	NaN	NaN	-1111.5	512.02	158.47	-1116.8	518.7	287.21	-1173.9	300.6	155.34	-1110.7	212.28	179.26	-1175.3	221.97	167.44	-1110.9	288.36	167.32	-1155.9	106.57	180.05	-1144.8	114.74	269.82	-1224	75.923	226.64	-1214.8	43.75	258.51	-1218.7	48.417	194.34	-1042.6	43.331	157.23	-1014.9	46.237	266.11	-959.91	57.929	217.33	-1318	1478.8	287.12	-1402.6	1271.7	279.31
57	0.23333	-1108.5	1255.7	273.94	-1224.2	1414.2	425.27	-1237.1	1432.3	121.24	-1296	1726.7	290.82	-1171.3	980.98	390.44	NaN	NaN	NaN	NaN	NaN	NaN	NaN	NaN	NaN	-1251.1	891.48	448.53	-1209.6	964.59	98.744	-1274.1	1058.3	432.47	-1234.8	1092.4	133.86	-1387.5	977.82	250.35	NaN	NaN	NaN	-1144.2	614.36	427.98	-1206	598.28	450.09	NaN	NaN	NaN	-1201.5	474.9	419.86	-1176.6	468.43	288.1	-1406.7	398.38	403.37	-1430.4	311.4	399.84	-1469.9	357.82	396.5	-1368.1	349.4	410.3	-1548.2	281.45	379.47	-1518.1	272.99	296.24	-1588.3	320.4	323.12	-1607	307.29	294.78	-1615.7	314.56	355.51	-1611	141.91	400.3	NaN	NaN	NaN	NaN	NaN	NaN	-1179.3	677.24	107.36	NaN	NaN	NaN	-1159.2	587	134.79	NaN	NaN	NaN	-1110	511.92	158.15	-1114.5	518.84	286.92	-1173.2	300.78	155.24	-1110.3	212.21	179.02	-1175	222.09	167.41	-1110.3	288.25	167.11	-1155.8	106.59	180.02	-1144.6	114.84	269.82	-1224	75.98	226.61	-1214.9	43.803	258.49	-1218.7	48.466	194.31	-1042.6	43.318	157.21	-1014.9	46.186	266.17	-959.9	57.87	217.33	-1312.6	1479.9	286.93	-1397.6	1272.9	278.33
58	0.2375	-1103.5	1256.9	274.67	-1220	1415.1	425.54	-1231.1	1433.7	121.46	-1290.4	1728	290.9	-1166.6	982.3	390.44	NaN	NaN	NaN	NaN	NaN	NaN	NaN	NaN	NaN	-1246.2	892.84	448.16	-1204.7	965.38	98.472	-1269.6	1059.5	432.11	-1229.4	1093.6	133.76	-1382.6	979.14	249.63	NaN	NaN	NaN	-1135.2	617.23	428.72	-1196.9	600.18	450.69	NaN	NaN	NaN	-1190.4	476.95	420.49	-1165.5	470.7	288.61	-1395.2	399.94	403.45	-1418.3	312.8	400.16	-1458.3	359.15	396.59	-1358.2	351.82	411.1	-1536.3	282.37	379.57	-1506.1	273.77	296.51	-1577.4	320.53	323.05	-1595.9	306.94	294.81	-1604.3	314.47	355.46	-1596.9	142.29	401.18	NaN	NaN	NaN	NaN	NaN	NaN	-1176.8	677.76	107.24	NaN	NaN	NaN	-1157.2	587.37	134.6	NaN	NaN	NaN	-1108.5	511.85	157.84	-1112.1	518.99	286.61	-1172.6	300.95	155.12	-1109.9	212.16	178.8	-1174.7	222.2	167.35	-1109.8	288.15	166.9	-1155.7	106.62	179.97	-1144.5	114.94	269.82	-1224	76.045	226.57	-1214.9	43.862	258.46	-1218.7	48.519	194.28	-1042.6	43.303	157.19	-1014.9	46.13	266.23	-959.89	57.812	217.32	-1307.2	1481	286.75	-1392.6	1274.1	277.35
59	0.24167	-1098.6	1258.2	275.41	-1215.8	1416.1	425.81	-1225.2	1435	121.7	-1284.8	1729.4	291.01	-1161.9	983.68	390.41	NaN	NaN	NaN	NaN	NaN	NaN	NaN	NaN	NaN	-1241.3	894.26	447.82	-1199.8	966.14	98.205	-1265.1	1060.8	431.76	-1224.1	1094.8	133.66	-1377.8	980.46	248.98	NaN	NaN	NaN	-1126.3	620.19	429.4	-1187.8	602.18	451.29	NaN	NaN	NaN	-1179.4	479.11	421.12	-1154.4	473.07	289.12	-1383.7	401.43	403.5	-1406.3	314.1	400.44	-1446.6	360.33	396.65	-1348.3	354.22	411.86	-1524.3	283.09	379.63	-1494	274.39	296.78	-1566.5	320.39	322.95	-1584.8	306.28	294.8	-1592.9	314.06	355.37	-1582.5	142.43	402.08	NaN	NaN	NaN	NaN	NaN	NaN	-1174.3	678.29	107.15	NaN	NaN	NaN	-1155.2	587.75	134.43	NaN	NaN	NaN	-1107.1	511.79	157.53	-1109.8	519.14	286.3	-1171.9	301.1	154.98	-1109.4	212.13	178.59	-1174.4	222.32	167.26	-1109.2	288.06	166.71	-1155.6	106.65	179.93	-1144.4	115.04	269.82	-1224	76.118	226.54	-1214.9	43.925	258.43	-1218.7	48.576	194.25	-1042.6	43.288	157.17	-1015	46.068	266.3	-959.88	57.754	217.32	-1301.8	1482.1	286.57	-1387.6	1275.3	276.37
60	0.24583	-1093.7	1259.4	276.15	-1211.6	1417	426.09	-1219.3	1436.5	121.96	-1279.3	1730.7	291.14	-1157.2	985.09	390.33	NaN	NaN	NaN	NaN	NaN	NaN	NaN	NaN	NaN	-1236.3	895.74	447.52	-1195	966.88	97.943	-1260.5	1062.1	431.41	-1218.9	1096	133.54	-1372.9	981.8	248.4	-1189.8	693.5	457.63	-1117.4	623.22	430.03	-1178.8	604.27	451.91	NaN	NaN	NaN	-1168.5	481.37	421.75	-1143.4	475.54	289.64	-1372.3	402.82	403.52	-1394.1	315.29	400.71	-1434.9	361.37	396.68	-1338.3	356.55	412.59	-1512.2	283.61	379.67	-1481.9	274.82	297.03	-1555.6	319.95	322.82	-1573.7	305.29	294.77	-1581.5	313.33	355.25	-1567.8	142.34	403	NaN	NaN	NaN	NaN	NaN	NaN	-1171.8	678.82	107.08	NaN	NaN	NaN	-1153.4	588.14	134.29	NaN	NaN	NaN	-1105.7	511.76	157.23	-1107.6	519.3	285.96	-1171.3	301.25	154.82	-1109	212.12	178.4	-1174.1	222.44	167.15	-1108.7	287.98	166.53	-1155.5	106.68	179.87	-1144.3	115.14	269.82	-1224	76.197	226.5	-1214.9	43.995	258.4	-1218.6	48.636	194.22	-1042.6	43.273	157.15	-1015	45.999	266.38	-959.87	57.697	217.31	-1296.5	1483.2	286.41	-1382.6	1276.6	275.39
61	0.25	-1088.8	1260.7	276.89	-1207.5	1418	426.37	-1213.4	1437.9	122.23	-1273.7	1732.1	291.29	-1152.5	986.54	390.22	NaN	NaN	NaN	NaN	NaN	NaN	NaN	NaN	NaN	-1231.4	897.27	447.27	-1190.3	967.6	97.683	-1256	1063.5	431.07	-1213.7	1097.1	133.41	-1368	983.14	247.88	-1183.6	695.54	457.98	-1108.5	626.32	430.61	-1169.8	606.46	452.53	NaN	NaN	NaN	-1157.7	483.72	422.36	-1132.3	478.11	290.17	-1361	404.13	403.51	-1381.9	316.37	400.95	-1423.2	362.25	396.68	-1328.2	358.8	413.26	-1500.1	283.92	379.68	-1469.8	275.07	297.28	-1544.7	319.23	322.66	-1562.5	303.99	294.7	-1570	312.29	355.09	-1553	142.03	403.93	NaN	NaN	NaN	NaN	NaN	NaN	-1169.4	679.36	107.05	NaN	NaN	NaN	-1151.5	588.54	134.17	NaN	NaN	NaN	-1104.3	511.74	156.94	-1105.4	519.45	285.62	-1170.6	301.38	154.65	-1108.5	212.11	178.22	-1173.8	222.56	167.03	-1108.1	287.91	166.38	-1155.5	106.71	179.82	-1144.2	115.25	269.82	-1224	76.285	226.46	-1214.9	44.069	258.36	-1218.6	48.698	194.19	-1042.6	43.257	157.13	-1015.1	45.924	266.47	-959.86	57.641	217.3	-1291.3	1484.3	286.25	-1377.7	1277.8	274.43
62	0.25417	-1084	1262	277.63	-1203.4	1419	426.66	-1207.5	1439.3	122.52	-1268.2	1733.4	291.46	-1147.7	988.01	390.08	NaN	NaN	NaN	NaN	NaN	NaN	NaN	NaN	NaN	-1226.4	898.87	447.07	-1185.6	968.29	97.424	-1251.4	1064.9	430.74	-1208.5	1098.3	133.25	-1363.2	984.47	247.42	-1177.1	697.68	458.35	-1099.7	629.49	431.14	-1160.9	608.73	453.15	NaN	NaN	NaN	-1147	486.14	422.97	-1121.3	480.76	290.7	-1349.7	405.32	403.48	-1369.7	317.33	401.18	-1411.5	362.97	396.66	-1318	360.92	413.88	-1487.9	284.01	379.66	-1457.6	275.12	297.53	-1533.8	318.22	322.48	-1551.3	302.39	294.59	-1558.5	310.92	354.9	-1537.9	141.51	404.86	NaN	NaN	NaN	NaN	NaN	NaN	-1167	679.9	107.03	NaN	NaN	NaN	-1149.8	588.95	134.08	NaN	NaN	NaN	-1102.9	511.74	156.65	-1103.3	519.59	285.27	-1170	301.51	154.47	-1108.1	212.12	178.05	-1173.4	222.69	166.88	-1107.6	287.85	166.24	-1155.4	106.74	179.76	-1144.1	115.35	269.81	-1224	76.38	226.43	-1214.9	44.15	258.33	-1218.6	48.763	194.16	-1042.6	43.241	157.11	-1015.2	45.842	266.57	-959.85	57.585	217.29	-1286.1	1485.4	286.1	-1372.7	1279	273.47
